<svg width="1267" height="365" viewBox="0 0 1267 365" fill="none" xmlns="http://www.w3.org/2000/svg">
<path d="M373.151 155.888C365.024 155.888 358.31 159.186 354.423 164.84V132.92H344.293V215.017H354.423V189.458C354.423 173.204 359.959 164.841 370.442 164.841C378.687 164.841 382.456 170.024 382.456 181.331V215.018H392.586V178.858C392.586 163.897 385.755 155.888 373.151 155.888ZM428.441 155.888C418.311 155.888 410.42 159.775 403.942 168.02L411.245 174.145C415.839 168.02 421.375 164.84 428.206 164.84C437.039 164.84 441.986 169.787 441.986 178.739V181.095H429.148C419.372 181.095 413.6 182.037 409.242 184.393C404.531 186.984 401.939 191.696 401.939 197.821C401.939 209.011 409.831 216.078 422.316 216.078C431.032 216.078 437.981 212.544 442.103 206.302L442.81 215.018H452.115V178.74C452.115 164.368 443.281 155.888 428.441 155.888ZM424.672 207.596C416.898 207.596 412.069 203.945 412.069 198.291C412.069 195.346 413.129 193.108 415.014 191.577C417.488 189.692 421.492 188.986 430.326 188.986H441.986V189.575C441.985 200.293 434.918 207.596 424.672 207.596ZM488.655 216.076C499.491 216.076 508.09 210.187 511.977 199.586L502.672 196.052C500.67 203.001 495.369 207.124 488.538 207.124C476.995 207.124 472.048 197.112 472.048 186.158C472.048 175.204 476.995 164.839 488.538 164.839C495.252 164.839 500.552 169.079 502.908 176.146L512.566 172.259C507.972 161.187 499.256 155.887 488.538 155.887C470.517 155.887 461.683 170.846 461.683 186.158C461.682 202.06 471.105 216.076 488.655 216.076ZM522.335 215.016H532.465V197.937L544.361 185.216L563.56 215.016H575.574L551.31 178.974L572.511 156.948H558.966L532.464 185.334V132.92H522.334V215.016H522.335ZM625.502 185.805V132.92H616.315L575.09 189.222V195.582H615.373V215.017H625.503V195.582H638.695V185.806H625.502V185.805ZM588.282 185.805L615.373 147.76V185.805H588.282ZM646.497 145.287H657.804V132.92H646.497V145.287ZM647.086 215.016H657.216V156.948H647.086V215.016ZM735.062 155.888C726.699 155.888 720.103 159.304 716.098 167.195C712.918 159.068 706.557 155.888 699.019 155.888C692.776 155.888 686.887 158.126 683.236 164.133V156.948H673.342L673.46 215.016H683.59V188.985C683.59 176.382 685.592 164.839 697.135 164.839C706.911 164.839 709.149 173.791 709.149 181.682V215.015H719.279V188.984C719.279 176.381 721.164 164.838 733.06 164.838C744.603 164.838 744.839 176.617 744.839 181.446V215.015H754.969V178.501C754.968 165.546 748.961 155.888 735.062 155.888ZM798.271 155.888C790.733 155.888 784.137 158.597 779.896 164.133V156.948H769.766V239.045H779.896V207.714C783.783 212.897 790.497 216.077 798.271 216.077C814.408 216.077 823.713 203.827 823.713 185.924C823.713 168.021 814.29 155.888 798.271 155.888ZM796.386 207.125C784.843 207.125 779.072 198.056 779.072 185.924C779.072 173.321 785.197 164.723 796.386 164.723C807.34 164.723 813.583 172.968 813.583 185.924C813.583 198.526 807.694 207.125 796.386 207.125ZM856.329 155.888C846.199 155.888 838.308 159.775 831.83 168.02L839.133 174.145C843.727 168.02 849.263 164.84 856.094 164.84C864.928 164.84 869.875 169.787 869.875 178.739V181.095H857.036C847.26 181.095 841.488 182.037 837.13 184.393C832.419 186.984 829.827 191.696 829.827 197.821C829.827 209.011 837.719 216.078 850.204 216.078C858.92 216.078 865.869 212.544 869.992 206.302L870.699 215.018H880.004V178.74C880.004 164.368 871.17 155.888 856.329 155.888ZM852.56 207.596C844.786 207.596 839.957 203.945 839.957 198.291C839.957 195.346 841.017 193.108 842.902 191.577C845.376 189.692 849.38 188.986 858.214 188.986H869.875V189.575C869.875 200.293 862.807 207.596 852.56 207.596ZM916.544 216.076C927.38 216.076 935.979 210.187 939.866 199.586L930.561 196.052C928.559 203.001 923.258 207.124 916.427 207.124C904.884 207.124 899.937 197.112 899.937 186.158C899.937 175.204 904.884 164.839 916.427 164.839C923.141 164.839 928.441 169.079 930.797 176.146L940.455 172.259C935.861 161.187 927.145 155.887 916.427 155.887C898.406 155.887 889.572 170.846 889.572 186.158C889.571 202.06 898.994 216.076 916.544 216.076ZM976.608 165.193V156.948H962.356V135.629L952.226 143.167V156.948H942.685V165.193H952.226V200.529C952.226 211.483 958.822 216.077 967.185 216.077C970.247 216.077 973.428 215.488 976.608 214.428V205.83C974.017 206.654 971.661 207.126 969.659 207.126C965.065 207.126 962.356 204.77 962.356 199.47V165.194H976.608V165.193Z" fill="#EBEBEB"/>
<path d="M107.858 135.784V174.338H113.589H119.32V141.516V108.694H152.142H184.964V102.963V97.23H146.41H107.856V135.784H107.858Z" fill="#666B72"/>
<path d="M192.921 239.454C224.485 239.454 250.072 213.912 250.072 182.405C250.072 150.898 224.485 125.356 192.921 125.356C161.357 125.356 135.77 150.898 135.77 182.405C135.77 213.912 161.357 239.454 192.921 239.454Z" fill="#83E4C7"/>
<path d="M187.215 125.404C187.231 125.425 186.881 125.462 186.435 125.484C185.995 125.505 185.623 125.548 185.612 125.574C185.602 125.601 185.426 125.622 185.225 125.622C184.992 125.622 184.864 125.643 184.885 125.675C184.906 125.707 184.768 125.728 184.503 125.728C184.217 125.728 184.116 125.744 184.169 125.781C184.227 125.818 184.148 125.834 183.914 125.834C183.702 125.834 183.59 125.855 183.612 125.887C183.633 125.919 183.564 125.94 183.442 125.94C183.055 125.94 182.529 126.009 182.556 126.051C182.572 126.078 182.45 126.099 182.285 126.099C182.099 126.099 181.998 126.12 182.02 126.152C182.041 126.184 181.935 126.205 181.744 126.205C181.526 126.205 181.457 126.221 181.516 126.258C181.574 126.295 181.5 126.311 181.277 126.311C181.07 126.311 180.985 126.327 181.033 126.359C181.081 126.391 180.948 126.417 180.651 126.444C180.396 126.465 180.205 126.502 180.221 126.529C180.237 126.556 180.136 126.577 180.003 126.577C179.854 126.577 179.77 126.598 179.791 126.63C179.812 126.662 179.738 126.683 179.611 126.683C179.489 126.683 179.393 126.704 179.393 126.736C179.393 126.763 179.297 126.789 179.181 126.789C179.065 126.789 178.969 126.81 178.969 126.837C178.969 126.869 178.799 126.906 178.592 126.927C178.353 126.948 178.242 126.98 178.289 127.007C178.332 127.039 178.257 127.055 178.093 127.055C177.902 127.055 177.849 127.071 177.907 127.108C177.966 127.145 177.923 127.161 177.758 127.161C177.62 127.161 177.54 127.182 177.562 127.214C177.583 127.246 177.509 127.267 177.382 127.267C177.27 127.267 177.164 127.294 177.154 127.32C177.144 127.352 177 127.394 176.83 127.41C176.634 127.431 176.543 127.458 176.591 127.484C176.634 127.516 176.575 127.532 176.432 127.532C176.294 127.532 176.214 127.553 176.236 127.585C176.257 127.617 176.199 127.638 176.109 127.638C176.019 127.638 175.944 127.659 175.944 127.686C175.944 127.707 175.833 127.744 175.695 127.76C175.557 127.776 175.435 127.813 175.424 127.845C175.413 127.877 175.334 127.903 175.249 127.903C175.164 127.903 175.095 127.924 175.095 127.956C175.095 127.983 175.01 128.009 174.904 128.009C174.793 128.009 174.729 128.03 174.75 128.062C174.771 128.094 174.707 128.115 174.591 128.115C174.485 128.115 174.411 128.136 174.426 128.163C174.442 128.19 174.357 128.221 174.235 128.237C174.107 128.253 174.001 128.295 173.991 128.322C173.981 128.354 173.901 128.38 173.816 128.38C173.72 128.38 173.667 128.401 173.689 128.433C173.71 128.465 173.652 128.486 173.562 128.486C173.472 128.486 173.397 128.507 173.397 128.539C173.397 128.566 173.323 128.592 173.232 128.592C173.147 128.592 173.083 128.613 173.099 128.64C173.115 128.667 173.024 128.704 172.892 128.72C172.759 128.741 172.653 128.778 172.653 128.81C172.653 128.837 172.574 128.858 172.483 128.858C172.35 128.858 172.329 128.874 172.387 128.911C172.446 128.948 172.424 128.964 172.291 128.964C172.185 128.964 172.126 128.985 172.148 129.017C172.169 129.049 172.111 129.07 172.021 129.07C171.931 129.07 171.856 129.091 171.856 129.123C171.856 129.149 171.76 129.192 171.644 129.208C171.528 129.229 171.448 129.261 171.464 129.287C171.48 129.314 171.416 129.335 171.326 129.335C171.23 129.335 171.172 129.356 171.193 129.388C171.214 129.42 171.156 129.441 171.06 129.441C170.964 129.441 170.906 129.462 170.927 129.494C170.948 129.526 170.9 129.547 170.826 129.547C170.751 129.547 170.688 129.568 170.688 129.6C170.688 129.627 170.592 129.669 170.476 129.685C170.359 129.706 170.28 129.738 170.296 129.765C170.312 129.791 170.259 129.813 170.184 129.813C170.105 129.813 170.057 129.834 170.078 129.866C170.099 129.898 170.051 129.919 169.977 129.919C169.903 129.919 169.839 129.94 169.839 129.972C169.839 129.999 169.791 130.025 169.727 130.025C169.669 130.025 169.584 130.062 169.541 130.105C169.493 130.148 169.398 130.184 169.329 130.184C169.255 130.184 169.212 130.205 169.228 130.237C169.249 130.269 169.201 130.29 169.122 130.29C169.043 130.29 168.995 130.311 169.016 130.343C169.037 130.375 168.989 130.396 168.91 130.396C168.83 130.396 168.783 130.417 168.804 130.449C168.831 130.492 168.65 130.528 168.602 130.486C168.591 130.48 168.543 130.518 168.49 130.566C168.437 130.619 168.336 130.662 168.256 130.662C168.145 130.662 168.129 130.672 168.193 130.715C168.251 130.752 168.225 130.768 168.087 130.768C167.949 130.768 167.922 130.784 167.981 130.821C168.044 130.864 168.029 130.874 167.917 130.874C167.832 130.874 167.768 130.895 167.768 130.927C167.768 130.954 167.72 130.98 167.662 130.98C167.603 130.98 167.556 131.007 167.556 131.038C167.556 131.065 167.535 131.075 167.503 131.059C167.476 131.043 167.45 131.054 167.45 131.08C167.45 131.112 167.386 131.139 167.312 131.139C167.238 131.139 167.19 131.16 167.211 131.192C167.227 131.219 167.195 131.245 167.137 131.245C167.073 131.245 167.025 131.266 167.025 131.298C167.025 131.325 166.977 131.351 166.919 131.351C166.861 131.351 166.813 131.372 166.813 131.404C166.813 131.431 166.765 131.457 166.712 131.457C166.654 131.457 166.574 131.494 166.526 131.536C166.483 131.579 166.409 131.616 166.361 131.616C166.313 131.616 166.292 131.637 166.308 131.669C166.324 131.696 166.292 131.722 166.234 131.722C166.17 131.722 166.122 131.743 166.122 131.775C166.122 131.802 166.085 131.828 166.042 131.828C165.999 131.828 165.962 131.849 165.962 131.881C165.962 131.908 165.877 131.945 165.776 131.966C165.675 131.982 165.59 132.019 165.59 132.046C165.59 132.073 165.542 132.094 165.478 132.094C165.42 132.094 165.388 132.115 165.404 132.147C165.42 132.174 165.388 132.2 165.324 132.2C165.26 132.2 165.228 132.221 165.244 132.253C165.26 132.28 165.239 132.306 165.191 132.306C165.143 132.306 165.069 132.343 165.026 132.386C164.978 132.429 164.898 132.466 164.84 132.466C164.787 132.466 164.739 132.487 164.739 132.519C164.739 132.546 164.691 132.572 164.627 132.572C164.569 132.572 164.537 132.593 164.553 132.625C164.574 132.657 164.521 132.678 164.436 132.678C164.32 132.678 164.303 132.689 164.367 132.731C164.436 132.773 164.43 132.784 164.351 132.784C164.298 132.784 164.218 132.821 164.176 132.863C164.128 132.906 164.048 132.943 163.99 132.943C163.932 132.943 163.9 132.964 163.916 132.996C163.932 133.023 163.9 133.049 163.837 133.049C163.773 133.049 163.741 133.07 163.757 133.102C163.773 133.129 163.741 133.155 163.683 133.155C163.62 133.155 163.572 133.176 163.572 133.208C163.572 133.234 163.524 133.261 163.471 133.261C163.418 133.261 163.36 133.298 163.338 133.341C163.322 133.384 163.259 133.42 163.2 133.42C163.137 133.42 163.104 133.441 163.12 133.473C163.136 133.5 163.104 133.526 163.041 133.526C162.977 133.526 162.945 133.547 162.961 133.579C162.977 133.606 162.956 133.632 162.913 133.632C162.865 133.632 162.828 133.653 162.828 133.685C162.828 133.712 162.78 133.738 162.722 133.738C162.664 133.738 162.616 133.759 162.616 133.791C162.616 133.818 162.558 133.855 162.483 133.876C162.408 133.892 162.35 133.929 162.35 133.955C162.35 133.981 162.297 134.003 162.233 134.003C162.132 134.003 162.127 134.014 162.19 134.062C162.254 134.104 162.238 134.115 162.127 134.094C162.026 134.078 161.994 134.094 162.015 134.147C162.031 134.184 162.01 134.216 161.962 134.216C161.919 134.216 161.856 134.253 161.819 134.295C161.782 134.338 161.702 134.375 161.639 134.375C161.549 134.375 161.543 134.385 161.607 134.428C161.671 134.471 161.66 134.481 161.565 134.481C161.496 134.481 161.459 134.502 161.475 134.534C161.491 134.561 161.459 134.587 161.401 134.587C161.337 134.587 161.289 134.608 161.289 134.64C161.289 134.666 161.231 134.703 161.156 134.725C161.082 134.741 161.039 134.778 161.055 134.804C161.071 134.831 161.045 134.852 161.002 134.852C160.954 134.852 160.917 134.873 160.917 134.905C160.917 134.932 160.869 134.958 160.805 134.958C160.747 134.958 160.715 134.979 160.731 135.011C160.747 135.038 160.726 135.064 160.683 135.064C160.635 135.064 160.598 135.085 160.598 135.117C160.598 135.144 160.539 135.181 160.465 135.202C160.391 135.218 160.348 135.255 160.364 135.281C160.38 135.308 160.354 135.329 160.311 135.329C160.263 135.329 160.226 135.35 160.226 135.382C160.226 135.409 160.199 135.435 160.173 135.435C160.141 135.435 160.051 135.499 159.977 135.573C159.881 135.669 159.802 135.7 159.717 135.685C159.611 135.669 159.6 135.674 159.648 135.733C159.696 135.791 159.691 135.807 159.621 135.807C159.568 135.807 159.547 135.828 159.563 135.86C159.579 135.887 159.552 135.913 159.499 135.913C159.446 135.913 159.366 135.961 159.324 136.014C159.287 136.073 159.234 136.11 159.207 136.094C159.186 136.078 159.164 136.094 159.164 136.121C159.164 136.153 159.132 136.179 159.095 136.179C159.058 136.179 158.994 136.227 158.952 136.285C158.909 136.343 158.83 136.391 158.771 136.391C158.713 136.391 158.686 136.407 158.702 136.423C158.745 136.466 158.511 136.657 158.421 136.657C158.389 136.657 158.378 136.678 158.394 136.71C158.41 136.742 158.373 136.763 158.309 136.763C158.245 136.763 158.203 136.779 158.224 136.795C158.267 136.843 158.128 136.975 158.033 136.975C157.99 136.975 157.937 137.012 157.921 137.06C157.9 137.118 157.852 137.134 157.778 137.118C157.693 137.097 157.682 137.102 157.735 137.166C157.783 137.225 157.778 137.24 157.708 137.24C157.655 137.24 157.634 137.261 157.65 137.293C157.666 137.32 157.645 137.346 157.597 137.346C157.544 137.346 157.459 137.404 157.4 137.479C157.342 137.553 157.262 137.612 157.22 137.612C157.177 137.612 157.156 137.633 157.172 137.665C157.188 137.692 157.156 137.718 157.093 137.718C157.029 137.718 156.997 137.739 157.013 137.771C157.029 137.798 157.019 137.824 156.987 137.824C156.955 137.824 156.876 137.883 156.807 137.957C156.738 138.031 156.637 138.09 156.584 138.09C156.499 138.09 156.494 138.101 156.563 138.143C156.626 138.186 156.616 138.196 156.52 138.196C156.451 138.196 156.408 138.217 156.424 138.238C156.44 138.265 156.403 138.318 156.339 138.36C156.28 138.402 156.174 138.487 156.105 138.551C156.036 138.62 155.967 138.673 155.951 138.673C155.935 138.673 155.861 138.737 155.781 138.811C155.707 138.885 155.611 138.933 155.569 138.917C155.526 138.901 155.51 138.911 155.526 138.938C155.563 139.002 155.43 139.15 155.34 139.15C155.308 139.15 155.297 139.171 155.313 139.203C155.329 139.23 155.318 139.256 155.287 139.256C155.255 139.256 155.17 139.319 155.101 139.394C155.032 139.468 154.947 139.516 154.921 139.495C154.884 139.474 154.878 139.495 154.9 139.554C154.927 139.628 154.916 139.639 154.842 139.612C154.789 139.591 154.762 139.596 154.783 139.628C154.804 139.66 154.778 139.718 154.735 139.766C154.687 139.808 154.65 139.829 154.65 139.808C154.65 139.787 154.607 139.824 154.549 139.883C154.496 139.946 154.421 139.999 154.39 139.999C154.353 139.999 154.342 140.02 154.358 140.052C154.374 140.079 154.363 140.105 154.331 140.105C154.294 140.105 154.22 140.168 154.161 140.243C154.103 140.318 154.023 140.365 153.981 140.349C153.933 140.333 153.923 140.349 153.944 140.407C153.971 140.471 153.955 140.487 153.891 140.46C153.828 140.439 153.817 140.45 153.838 140.513C153.865 140.582 153.849 140.592 153.78 140.566C153.721 140.545 153.7 140.55 153.727 140.587C153.764 140.65 153.207 141.218 153.106 141.218C153.069 141.218 153.058 141.234 153.074 141.25C153.106 141.287 152.904 141.494 152.697 141.637C152.633 141.68 152.596 141.733 152.612 141.759C152.628 141.78 152.586 141.802 152.516 141.802C152.437 141.802 152.415 141.818 152.458 141.845C152.506 141.877 152.495 141.908 152.41 141.962C152.352 142.004 152.272 142.073 152.24 142.111C151.879 142.53 151.248 143.135 151.205 143.109C151.168 143.082 151.162 143.104 151.184 143.162C151.211 143.231 151.2 143.247 151.131 143.221C151.067 143.2 151.057 143.21 151.078 143.274C151.104 143.337 151.088 143.354 151.025 143.327C150.966 143.306 150.951 143.317 150.966 143.364C150.982 143.401 150.881 143.528 150.748 143.645C150.615 143.767 150.509 143.889 150.509 143.921C150.509 143.953 150.482 143.979 150.446 143.979C150.414 143.979 150.398 143.995 150.419 144.011C150.467 144.059 150.307 144.202 150.244 144.165C150.212 144.144 150.207 144.17 150.228 144.223C150.255 144.292 150.238 144.308 150.18 144.287C150.132 144.266 150.1 144.282 150.106 144.319C150.116 144.415 149.618 144.945 149.554 144.908C149.527 144.892 149.517 144.908 149.527 144.951C149.543 144.988 149.506 145.078 149.447 145.153C149.389 145.222 149.272 145.36 149.192 145.455C149.113 145.556 148.996 145.689 148.932 145.758C148.863 145.827 148.81 145.901 148.81 145.917C148.81 145.933 148.714 146.044 148.598 146.167C148.482 146.294 148.386 146.411 148.386 146.432C148.386 146.448 148.29 146.57 148.174 146.697C148.057 146.819 147.962 146.941 147.962 146.968C147.962 146.989 147.893 147.079 147.803 147.175C147.718 147.265 147.644 147.361 147.644 147.382C147.644 147.403 147.585 147.483 147.511 147.557C147.437 147.631 147.378 147.706 147.378 147.722C147.378 147.738 147.319 147.812 147.245 147.887C147.171 147.961 147.112 148.041 147.112 148.062C147.112 148.083 147.043 148.179 146.953 148.269C146.868 148.365 146.794 148.46 146.794 148.492C146.794 148.519 146.768 148.545 146.73 148.545C146.698 148.545 146.682 148.561 146.703 148.577C146.719 148.593 146.687 148.657 146.629 148.72C146.576 148.779 146.528 148.863 146.528 148.901C146.528 148.943 146.507 148.959 146.475 148.943C146.448 148.927 146.422 148.949 146.422 148.991C146.422 149.039 146.401 149.076 146.369 149.076C146.343 149.076 146.316 149.113 146.316 149.156C146.316 149.199 146.289 149.235 146.258 149.235C146.231 149.235 146.215 149.256 146.231 149.278C146.247 149.305 146.21 149.358 146.151 149.395C146.098 149.438 146.05 149.496 146.05 149.522C146.05 149.549 146.007 149.607 145.96 149.655C145.907 149.703 145.822 149.83 145.764 149.936C145.711 150.042 145.621 150.18 145.568 150.239C145.51 150.297 145.467 150.372 145.467 150.404C145.467 150.431 145.446 150.457 145.424 150.457C145.397 150.457 145.334 150.553 145.275 150.669C145.222 150.786 145.158 150.881 145.137 150.881C145.11 150.881 145.094 150.908 145.094 150.939C145.094 150.976 145.052 151.04 145.004 151.088C144.951 151.136 144.861 151.269 144.802 151.385C144.744 151.502 144.653 151.635 144.606 151.682C144.553 151.73 144.51 151.793 144.51 151.831C144.51 151.863 144.483 151.889 144.457 151.889C144.425 151.889 144.404 151.905 144.409 151.926C144.42 152.011 144.335 152.207 144.292 152.207C144.265 152.207 144.244 152.239 144.244 152.276C144.244 152.313 144.196 152.377 144.138 152.419C144.079 152.462 144.032 152.525 144.032 152.557C144.032 152.647 143.857 152.95 143.809 152.95C143.782 152.95 143.767 152.998 143.767 153.056C143.767 153.114 143.746 153.162 143.714 153.162C143.687 153.162 143.661 153.199 143.661 153.242C143.661 153.285 143.645 153.322 143.624 153.322C143.597 153.322 143.534 153.428 143.475 153.561C143.417 153.694 143.353 153.8 143.332 153.8C143.305 153.8 143.289 153.837 143.289 153.885C143.289 153.928 143.268 153.948 143.236 153.933C143.209 153.917 143.183 153.949 143.183 154.007C143.183 154.07 143.162 154.118 143.141 154.118C143.12 154.118 143.056 154.235 142.998 154.383C142.939 154.526 142.876 154.648 142.855 154.648C142.834 154.648 142.812 154.685 142.812 154.733C142.812 154.776 142.791 154.797 142.759 154.781C142.732 154.765 142.706 154.797 142.706 154.855C142.706 154.913 142.685 154.972 142.658 154.993C142.631 155.009 142.594 155.094 142.573 155.179C142.552 155.269 142.515 155.338 142.488 155.338C142.461 155.338 142.44 155.375 142.44 155.417C142.44 155.46 142.419 155.497 142.387 155.497C142.36 155.497 142.334 155.545 142.334 155.603C142.334 155.661 142.313 155.709 142.281 155.709C142.254 155.709 142.228 155.746 142.228 155.789C142.228 155.831 142.207 155.868 142.175 155.868C142.148 155.868 142.122 155.905 142.122 155.948C142.122 156.038 141.851 156.574 141.793 156.601C141.766 156.612 141.75 156.665 141.75 156.723C141.75 156.776 141.723 156.824 141.692 156.824C141.666 156.824 141.649 156.845 141.666 156.867C141.682 156.894 141.645 156.989 141.586 157.079C141.533 157.175 141.485 157.286 141.485 157.328C141.485 157.371 141.464 157.408 141.432 157.408C141.405 157.408 141.379 157.461 141.379 157.524C141.379 157.588 141.363 157.62 141.342 157.604C141.31 157.567 141.188 157.837 141.13 158.081C141.114 158.15 141.082 158.203 141.056 158.203C141.03 158.203 141.008 158.251 141.008 158.314C141.008 158.373 140.987 158.404 140.955 158.388C140.928 158.372 140.902 158.404 140.902 158.462C140.902 158.526 140.881 158.574 140.849 158.574C140.822 158.574 140.796 158.622 140.796 158.68C140.796 158.797 140.531 159.386 140.467 159.413C140.446 159.423 140.424 159.492 140.424 159.562C140.424 159.631 140.403 159.689 140.371 159.689C140.344 159.689 140.318 159.726 140.318 159.774C140.318 159.853 140.212 160.124 140.1 160.336C140.074 160.389 140.052 160.469 140.052 160.511C140.052 160.554 140.031 160.591 139.999 160.591C139.972 160.591 139.946 160.655 139.946 160.729C139.946 160.803 139.925 160.851 139.893 160.83C139.861 160.814 139.84 160.851 139.84 160.92C139.84 160.989 139.803 161.111 139.76 161.196C139.718 161.276 139.68 161.393 139.68 161.446C139.68 161.504 139.659 161.547 139.627 161.547C139.6 161.547 139.574 161.611 139.574 161.685C139.574 161.759 139.553 161.807 139.521 161.786C139.489 161.765 139.468 161.813 139.468 161.887C139.468 161.961 139.447 162.025 139.42 162.025C139.393 162.025 139.356 162.131 139.34 162.264C139.319 162.391 139.282 162.513 139.25 162.529C139.223 162.55 139.202 162.609 139.202 162.667C139.202 162.72 139.181 162.768 139.149 162.768C139.122 162.768 139.096 162.842 139.096 162.933C139.096 163.024 139.075 163.082 139.043 163.06C139.011 163.039 138.99 163.097 138.99 163.188C138.99 163.278 138.969 163.353 138.942 163.353C138.915 163.353 138.878 163.459 138.862 163.592C138.841 163.72 138.804 163.842 138.772 163.857C138.745 163.878 138.724 163.947 138.724 164.022C138.724 164.091 138.703 164.149 138.671 164.149C138.644 164.149 138.618 164.218 138.618 164.308C138.618 164.393 138.597 164.467 138.565 164.467C138.538 164.467 138.512 164.52 138.512 164.589C138.512 164.658 138.496 164.732 138.475 164.754C138.448 164.775 138.433 164.812 138.427 164.828C138.385 165.114 138.332 165.316 138.294 165.316C138.267 165.316 138.246 165.385 138.246 165.475C138.246 165.56 138.225 165.634 138.193 165.634C138.166 165.634 138.14 165.719 138.14 165.825C138.14 165.936 138.119 166 138.087 165.979C138.055 165.958 138.034 166.016 138.034 166.122C138.029 166.218 137.997 166.393 137.954 166.509C137.912 166.626 137.874 166.774 137.874 166.838C137.874 166.907 137.853 166.96 137.821 166.96C137.794 166.96 137.768 167.045 137.768 167.146C137.768 167.247 137.747 167.332 137.715 167.332C137.688 167.332 137.662 167.417 137.662 167.523C137.662 167.624 137.641 167.698 137.614 167.682C137.587 167.666 137.55 167.804 137.529 167.995C137.513 168.186 137.471 168.35 137.444 168.366C137.417 168.387 137.396 168.478 137.396 168.578C137.396 168.678 137.375 168.774 137.343 168.79C137.316 168.806 137.29 168.906 137.29 169.008C137.29 169.119 137.269 169.183 137.237 169.162C137.205 169.141 137.184 169.226 137.184 169.369C137.184 169.502 137.163 169.613 137.136 169.613C137.109 169.613 137.072 169.804 137.051 170.037C137.03 170.271 136.993 170.462 136.966 170.462C136.939 170.462 136.918 170.568 136.918 170.701C136.918 170.834 136.897 170.94 136.865 170.94C136.838 170.94 136.812 171.046 136.812 171.179C136.812 171.312 136.791 171.418 136.759 171.418C136.732 171.418 136.706 171.54 136.706 171.689C136.706 171.832 136.685 171.944 136.658 171.928C136.631 171.912 136.594 172.146 136.573 172.453C136.552 172.761 136.515 173.026 136.488 173.042C136.461 173.058 136.44 173.185 136.44 173.334C136.44 173.477 136.419 173.594 136.387 173.594C136.355 173.594 136.334 173.743 136.334 173.939C136.334 174.135 136.313 174.284 136.281 174.284C136.249 174.284 136.228 174.433 136.228 174.629C136.228 174.82 136.207 174.974 136.18 174.974C136.153 174.974 136.116 175.346 136.095 175.797C136.074 176.248 136.037 176.636 136.01 176.652C135.983 176.668 135.962 176.917 135.962 177.209C135.962 177.522 135.941 177.734 135.909 177.734C135.877 177.734 135.856 178.02 135.856 178.488C135.856 178.997 135.84 179.22 135.803 179.167C135.771 179.114 135.75 180.218 135.75 182.325C135.755 185.026 135.766 185.546 135.824 185.467C135.861 185.419 135.914 185.377 135.941 185.377C135.968 185.377 136.148 185.483 136.344 185.611C136.54 185.738 136.795 185.86 136.901 185.882C137.188 185.93 138.451 186.301 139.013 186.492C141.332 187.299 142.611 188.063 143.02 188.896C143.259 189.39 143.338 189.766 143.391 190.706C143.481 192.213 143.518 192.452 143.741 192.813C143.98 193.195 144.229 193.296 145.169 193.391C146.013 193.476 146.49 193.641 147.918 194.352C149.584 195.18 150.009 195.313 151.166 195.376C152.96 195.477 153.984 195.636 155.379 196.023C157.444 196.601 158.839 197.392 159.364 198.273C159.423 198.369 159.438 198.56 159.438 198.963C159.433 199.441 159.406 199.589 159.263 200.014C158.934 200.98 158.451 201.871 157.188 203.851C156.068 205.597 155.909 206.059 155.463 208.728C155.166 210.522 154.911 211.482 154.439 212.602C153.792 214.131 152.852 215.308 152.279 215.308C151.435 215.308 149.769 216.47 149.031 217.574C148.665 218.121 148.575 218.333 148.649 218.476C148.686 218.545 148.734 218.598 148.76 218.598C148.781 218.598 148.803 218.625 148.803 218.651C148.803 218.683 148.856 218.767 148.925 218.837C148.989 218.906 149.106 219.039 149.185 219.14C149.265 219.236 149.381 219.374 149.44 219.442C149.499 219.516 149.536 219.607 149.52 219.644C149.509 219.686 149.52 219.702 149.547 219.686C149.616 219.644 150.136 220.196 150.104 220.28C150.093 220.323 150.114 220.333 150.168 220.312C150.237 220.285 150.248 220.302 150.221 220.371C150.2 220.424 150.205 220.45 150.237 220.429C150.269 220.408 150.327 220.434 150.375 220.477C150.418 220.525 150.444 220.562 150.428 220.562C150.412 220.562 150.55 220.721 150.741 220.917C150.932 221.119 151.075 221.31 151.059 221.347C151.043 221.39 151.059 221.4 151.091 221.379C151.123 221.358 151.378 221.586 151.675 221.894C151.967 222.196 152.227 222.467 152.253 222.499C152.327 222.568 152.672 222.913 152.72 222.961C152.741 222.982 153.007 223.237 153.309 223.529C153.617 223.826 153.845 224.081 153.824 224.113C153.803 224.145 153.813 224.161 153.856 224.145C153.893 224.129 154.084 224.272 154.286 224.463C154.482 224.654 154.642 224.792 154.642 224.776C154.642 224.76 154.679 224.787 154.727 224.829C154.77 224.877 154.796 224.935 154.775 224.967C154.754 224.999 154.78 225.004 154.834 224.983C154.903 224.956 154.919 224.967 154.892 225.036C154.871 225.089 154.882 225.11 154.924 225.099C155.009 225.067 155.561 225.587 155.518 225.657C155.502 225.684 155.518 225.694 155.561 225.684C155.598 225.668 155.688 225.705 155.763 225.763C155.832 225.821 155.97 225.938 156.066 226.018C156.167 226.098 156.299 226.215 156.368 226.278C156.437 226.347 156.511 226.4 156.527 226.4C156.543 226.4 156.612 226.448 156.676 226.512C156.739 226.576 156.878 226.687 156.978 226.761C157.079 226.84 157.249 226.984 157.35 227.074C157.451 227.17 157.552 227.249 157.578 227.249C157.599 227.249 157.69 227.323 157.785 227.408C157.875 227.498 157.971 227.567 157.992 227.567C158.013 227.567 158.093 227.625 158.167 227.7C158.242 227.774 158.326 227.833 158.358 227.833C158.385 227.833 158.411 227.849 158.411 227.87C158.411 227.897 158.501 227.971 158.607 228.045C158.713 228.119 158.856 228.231 158.92 228.295C158.989 228.364 159.069 228.417 159.1 228.417C159.127 228.417 159.153 228.443 159.153 228.475C159.153 228.502 159.174 228.518 159.201 228.502C159.222 228.486 159.286 228.518 159.339 228.576C159.392 228.635 159.466 228.682 159.509 228.682C159.552 228.682 159.567 228.703 159.552 228.735C159.536 228.767 159.557 228.788 159.6 228.788C159.648 228.788 159.685 228.809 159.685 228.841C159.685 228.868 159.722 228.894 159.765 228.894C159.807 228.894 159.898 228.953 159.972 229.027C160.046 229.101 160.131 229.16 160.163 229.16C160.19 229.16 160.216 229.181 160.216 229.213C160.216 229.239 160.253 229.266 160.296 229.266C160.338 229.266 160.375 229.282 160.375 229.303C160.375 229.329 160.497 229.415 160.64 229.505C160.789 229.59 160.905 229.68 160.905 229.701C160.905 229.722 160.942 229.744 160.984 229.744C161.027 229.744 161.064 229.765 161.064 229.786C161.064 229.812 161.16 229.876 161.276 229.935C161.393 229.988 161.488 230.051 161.488 230.073C161.488 230.099 161.515 230.116 161.541 230.116C161.573 230.116 161.642 230.159 161.7 230.206C161.753 230.259 161.891 230.349 162.002 230.408C162.114 230.466 162.241 230.551 162.283 230.594C162.326 230.637 162.463 230.721 162.585 230.78C162.713 230.839 162.813 230.902 162.813 230.923C162.813 230.95 162.85 230.966 162.892 230.966C162.935 230.966 162.972 230.987 162.972 231.019C162.972 231.046 163.009 231.072 163.057 231.072C163.1 231.072 163.121 231.093 163.105 231.125C163.089 231.152 163.11 231.178 163.158 231.178C163.201 231.178 163.333 231.236 163.45 231.311C163.567 231.385 163.684 231.444 163.715 231.444C163.742 231.444 163.768 231.465 163.768 231.497C163.768 231.523 163.805 231.55 163.848 231.55C163.89 231.55 163.927 231.566 163.927 231.587C163.927 231.613 164.033 231.677 164.166 231.736C164.299 231.794 164.405 231.858 164.405 231.879C164.405 231.906 164.442 231.922 164.484 231.922C164.527 231.922 164.564 231.943 164.564 231.975C164.564 232.001 164.601 232.028 164.644 232.028C164.686 232.028 164.723 232.049 164.723 232.081C164.723 232.108 164.76 232.134 164.808 232.134C164.904 232.134 165.217 232.299 165.243 232.357C165.254 232.384 165.296 232.399 165.339 232.399C165.382 232.399 165.413 232.415 165.413 232.442C165.413 232.485 165.8 232.665 165.891 232.665C165.923 232.665 165.944 232.686 165.944 232.718C165.944 232.744 165.981 232.771 166.024 232.771C166.066 232.771 166.104 232.792 166.104 232.824C166.104 232.851 166.152 232.877 166.21 232.877C166.269 232.877 166.316 232.898 166.316 232.93C166.316 232.956 166.353 232.983 166.395 232.983C166.438 232.983 166.475 233.004 166.475 233.036C166.475 233.063 166.512 233.089 166.555 233.089C166.645 233.089 167.181 233.36 167.208 233.418C167.218 233.444 167.271 233.46 167.33 233.46C167.383 233.46 167.431 233.487 167.431 233.519C167.431 233.545 167.452 233.561 167.474 233.545C167.501 233.529 167.596 233.566 167.686 233.625C167.782 233.678 167.893 233.726 167.936 233.726C167.978 233.726 168.015 233.747 168.015 233.779C168.015 233.806 168.068 233.832 168.132 233.832C168.196 233.832 168.228 233.848 168.212 233.869C168.175 233.901 168.446 234.023 168.695 234.081C168.759 234.097 168.812 234.129 168.812 234.155C168.812 234.182 168.86 234.203 168.918 234.203C168.977 234.203 169.024 234.224 169.024 234.256C169.024 234.283 169.072 234.309 169.13 234.309C169.189 234.309 169.236 234.33 169.236 234.362C169.236 234.389 169.273 234.415 169.315 234.415C169.358 234.415 169.517 234.473 169.671 234.548C169.82 234.622 169.979 234.681 170.016 234.681C170.059 234.681 170.074 234.702 170.059 234.734C170.038 234.766 170.086 234.787 170.16 234.787C170.234 234.787 170.298 234.808 170.298 234.84C170.298 234.867 170.335 234.893 170.383 234.893C170.463 234.893 170.733 234.999 170.945 235.111C170.998 235.138 171.078 235.159 171.12 235.159C171.163 235.159 171.2 235.18 171.2 235.212C171.2 235.239 171.263 235.265 171.338 235.265C171.413 235.265 171.46 235.286 171.439 235.318C171.423 235.35 171.46 235.371 171.529 235.371C171.598 235.371 171.72 235.408 171.805 235.451C171.885 235.493 172.001 235.53 172.054 235.53C172.113 235.53 172.155 235.551 172.155 235.583C172.155 235.61 172.219 235.636 172.293 235.636C172.367 235.636 172.415 235.657 172.394 235.689C172.373 235.721 172.421 235.742 172.495 235.742C172.569 235.742 172.633 235.763 172.633 235.79C172.633 235.817 172.729 235.848 172.845 235.87C172.967 235.886 173.11 235.928 173.163 235.955C173.221 235.987 173.317 236.029 173.375 236.061C173.433 236.087 173.529 236.114 173.587 236.114C173.65 236.114 173.683 236.135 173.666 236.167C173.645 236.199 173.703 236.22 173.793 236.22C173.883 236.22 173.958 236.241 173.958 236.267C173.958 236.294 174.064 236.331 174.197 236.347C174.324 236.368 174.446 236.405 174.462 236.437C174.483 236.464 174.552 236.484 174.627 236.484C174.696 236.484 174.754 236.505 174.754 236.537C174.754 236.564 174.828 236.59 174.913 236.59C175.003 236.59 175.072 236.611 175.072 236.643C175.072 236.67 175.146 236.696 175.231 236.696C175.321 236.696 175.39 236.717 175.39 236.744C175.39 236.771 175.512 236.808 175.655 236.829C175.804 236.85 175.92 236.887 175.92 236.914C175.92 236.941 175.994 236.962 176.079 236.962C176.169 236.962 176.238 236.983 176.238 237.015C176.238 237.042 176.323 237.068 176.429 237.068C176.541 237.068 176.604 237.089 176.583 237.121C176.562 237.153 176.62 237.174 176.726 237.174C176.822 237.179 176.997 237.211 177.113 237.253C177.229 237.296 177.378 237.333 177.447 237.333C177.511 237.333 177.564 237.354 177.564 237.386C177.564 237.412 177.649 237.439 177.75 237.439C177.851 237.439 177.936 237.46 177.936 237.492C177.936 237.519 178.021 237.545 178.127 237.545C178.228 237.545 178.302 237.566 178.286 237.593C178.27 237.62 178.408 237.657 178.599 237.678C178.79 237.694 178.955 237.736 178.97 237.763C178.991 237.79 179.082 237.811 179.182 237.811C179.283 237.811 179.378 237.832 179.394 237.864C179.41 237.891 179.511 237.917 179.612 237.917C179.713 237.917 179.793 237.938 179.793 237.97C179.793 237.997 179.888 238.023 180.005 238.023C180.122 238.023 180.217 238.044 180.217 238.071C180.217 238.098 180.408 238.135 180.642 238.156C180.875 238.177 181.066 238.214 181.066 238.241C181.066 238.267 181.172 238.289 181.305 238.289C181.438 238.289 181.544 238.31 181.544 238.342C181.544 238.368 181.65 238.395 181.783 238.395C181.915 238.395 182.022 238.416 182.022 238.448C182.022 238.475 182.144 238.501 182.293 238.501C182.436 238.501 182.548 238.522 182.532 238.549C182.516 238.576 182.75 238.613 183.057 238.634C183.365 238.655 183.63 238.693 183.646 238.719C183.662 238.746 183.789 238.767 183.938 238.767C184.081 238.767 184.198 238.788 184.198 238.82C184.198 238.852 184.347 238.873 184.543 238.873C184.739 238.873 184.888 238.894 184.888 238.926C184.888 238.958 185.037 238.979 185.233 238.979C185.424 238.979 185.578 239 185.578 239.027C185.578 239.054 185.949 239.09 186.401 239.112C186.852 239.133 187.24 239.171 187.255 239.197C187.271 239.223 187.52 239.245 187.812 239.245C188.125 239.245 188.337 239.266 188.337 239.298C188.337 239.33 188.624 239.351 189.096 239.351C189.6 239.351 189.823 239.367 189.77 239.404C189.717 239.436 190.81 239.457 192.901 239.457C194.992 239.457 196.085 239.436 196.032 239.404C195.979 239.367 196.202 239.351 196.712 239.351C197.179 239.351 197.465 239.33 197.465 239.298C197.465 239.266 197.677 239.245 197.99 239.245C198.282 239.245 198.531 239.224 198.548 239.197C198.564 239.17 198.951 239.133 199.402 239.112C199.853 239.091 200.225 239.054 200.225 239.027C200.225 239 200.379 238.979 200.57 238.979C200.766 238.979 200.915 238.958 200.915 238.926C200.915 238.894 201.064 238.873 201.26 238.873C201.456 238.873 201.605 238.852 201.605 238.82C201.605 238.788 201.722 238.767 201.865 238.767C202.014 238.767 202.141 238.746 202.157 238.719C202.173 238.692 202.438 238.655 202.746 238.634C203.054 238.613 203.287 238.576 203.271 238.549C203.255 238.523 203.367 238.501 203.51 238.501C203.659 238.501 203.781 238.474 203.781 238.448C203.781 238.416 203.887 238.395 204.02 238.395C204.153 238.395 204.259 238.368 204.259 238.342C204.259 238.31 204.365 238.289 204.498 238.289C204.631 238.289 204.737 238.268 204.737 238.241C204.737 238.214 204.928 238.178 205.161 238.156C205.395 238.135 205.586 238.097 205.586 238.071C205.586 238.045 205.697 238.023 205.83 238.023C205.973 238.023 206.058 238.002 206.037 237.97C206.016 237.938 206.08 237.917 206.191 237.917C206.292 237.917 206.393 237.89 206.409 237.864C206.425 237.832 206.52 237.811 206.621 237.811C206.722 237.811 206.812 237.79 206.833 237.763C206.849 237.736 207.014 237.694 207.205 237.678C207.396 237.657 207.534 237.619 207.518 237.593C207.502 237.566 207.576 237.545 207.677 237.545C207.783 237.545 207.868 237.519 207.868 237.492C207.868 237.46 207.953 237.439 208.054 237.439C208.155 237.439 208.24 237.412 208.24 237.386C208.24 237.354 208.293 237.333 208.362 237.333C208.425 237.333 208.574 237.296 208.691 237.253C208.808 237.211 208.983 237.179 209.078 237.174C209.184 237.174 209.243 237.153 209.221 237.121C209.2 237.089 209.264 237.068 209.375 237.068C209.481 237.068 209.566 237.042 209.566 237.015C209.566 236.983 209.64 236.962 209.725 236.962C209.815 236.962 209.884 236.941 209.884 236.914C209.884 236.877 210.086 236.824 210.372 236.781C210.388 236.776 210.425 236.76 210.446 236.738C210.467 236.711 210.542 236.695 210.611 236.695C210.68 236.695 210.733 236.668 210.733 236.642C210.733 236.61 210.807 236.589 210.892 236.589C210.982 236.589 211.051 236.563 211.051 236.536C211.051 236.504 211.109 236.483 211.178 236.483C211.252 236.483 211.321 236.462 211.343 236.436C211.359 236.404 211.481 236.367 211.608 236.346C211.741 236.33 211.847 236.293 211.847 236.266C211.847 236.239 211.921 236.219 212.012 236.219C212.102 236.219 212.161 236.198 212.139 236.166C212.118 236.134 212.176 236.113 212.266 236.113C212.356 236.113 212.431 236.086 212.431 236.06C212.431 236.028 212.479 236.007 212.532 236.007C212.591 236.007 212.649 235.986 212.67 235.959C212.686 235.927 212.808 235.89 212.935 235.869C213.067 235.853 213.174 235.816 213.174 235.789C213.174 235.763 213.237 235.741 213.312 235.741C213.387 235.741 213.434 235.72 213.413 235.688C213.392 235.656 213.44 235.635 213.514 235.635C213.588 235.635 213.652 235.609 213.652 235.582C213.652 235.55 213.695 235.529 213.753 235.529C213.806 235.529 213.923 235.492 214.002 235.45C214.087 235.407 214.209 235.37 214.278 235.37C214.347 235.37 214.384 235.349 214.368 235.317C214.347 235.285 214.395 235.264 214.469 235.264C214.543 235.264 214.607 235.237 214.607 235.211C214.607 235.179 214.644 235.158 214.686 235.158C214.729 235.158 214.808 235.137 214.861 235.11C215.073 234.998 215.344 234.892 215.423 234.892C215.471 234.892 215.508 234.865 215.508 234.839C215.508 234.807 215.567 234.786 215.636 234.786C215.705 234.786 215.774 234.765 215.785 234.743C215.812 234.68 216.4 234.414 216.517 234.414C216.575 234.414 216.623 234.387 216.623 234.361C216.623 234.329 216.671 234.308 216.735 234.308C216.793 234.308 216.825 234.287 216.809 234.255C216.793 234.223 216.825 234.202 216.883 234.202C216.947 234.202 216.995 234.181 216.995 234.154C216.995 234.128 217.048 234.096 217.117 234.08C217.361 234.022 217.632 233.9 217.595 233.868C217.579 233.847 217.611 233.831 217.675 233.831C217.739 233.831 217.792 233.804 217.792 233.778C217.792 233.746 217.829 233.725 217.871 233.725C217.913 233.725 218.025 233.677 218.12 233.624C218.21 233.566 218.306 233.528 218.332 233.544C218.353 233.56 218.375 233.544 218.375 233.518C218.375 233.486 218.423 233.459 218.476 233.459C218.535 233.459 218.588 233.443 218.598 233.417C218.624 233.358 219.16 233.088 219.251 233.088C219.294 233.088 219.33 233.061 219.33 233.035C219.33 233.003 219.367 232.982 219.41 232.982C219.452 232.982 219.49 232.955 219.49 232.929C219.49 232.897 219.538 232.876 219.596 232.876C219.655 232.876 219.702 232.849 219.702 232.823C219.702 232.791 219.739 232.77 219.782 232.77C219.825 232.77 219.862 232.749 219.862 232.722C219.862 232.695 219.931 232.658 220.021 232.637C220.106 232.616 220.191 232.579 220.207 232.552C220.228 232.526 220.287 232.504 220.345 232.504C220.404 232.504 220.435 232.483 220.419 232.451C220.403 232.425 220.425 232.398 220.467 232.398C220.515 232.398 220.552 232.377 220.552 232.356C220.552 232.335 220.674 232.271 220.817 232.213C220.966 232.154 221.082 232.091 221.082 232.07C221.082 232.049 221.13 232.027 221.194 232.027C221.252 232.027 221.284 232 221.268 231.974C221.252 231.942 221.273 231.921 221.316 231.921C221.364 231.921 221.401 231.905 221.401 231.878C221.401 231.857 221.507 231.793 221.64 231.735C221.772 231.677 221.879 231.613 221.879 231.586C221.879 231.565 221.916 231.549 221.959 231.549C222.002 231.549 222.038 231.522 222.038 231.496C222.038 231.464 222.086 231.443 222.144 231.443C222.202 231.443 222.25 231.427 222.25 231.4C222.25 231.352 222.553 231.177 222.643 231.177C222.675 231.177 222.739 231.129 222.781 231.071C222.824 231.012 222.887 230.965 222.924 230.965C222.961 230.965 222.993 230.944 222.993 230.917C222.993 230.874 223.189 230.79 223.274 230.8C223.295 230.806 223.311 230.779 223.311 230.752C223.311 230.72 223.338 230.699 223.37 230.699C223.407 230.699 223.471 230.656 223.519 230.603C223.567 230.555 223.699 230.465 223.816 230.407C223.933 230.349 224.065 230.258 224.113 230.205C224.161 230.157 224.225 230.115 224.262 230.115C224.294 230.115 224.321 230.099 224.321 230.072C224.321 230.051 224.417 229.987 224.533 229.934C224.649 229.875 224.745 229.812 224.745 229.785C224.745 229.764 224.772 229.743 224.798 229.743C224.83 229.743 224.904 229.7 224.962 229.642C225.021 229.589 225.159 229.499 225.265 229.446C225.371 229.388 225.499 229.303 225.546 229.25C225.594 229.202 225.652 229.16 225.679 229.16C225.706 229.16 225.764 229.112 225.806 229.059C225.843 229.001 225.896 228.963 225.923 228.979C225.944 228.995 225.966 228.979 225.966 228.952C225.966 228.92 226.003 228.893 226.045 228.893C226.087 228.893 226.125 228.866 226.125 228.84C226.125 228.808 226.162 228.787 226.21 228.787C226.253 228.787 226.274 228.761 226.258 228.734C226.242 228.702 226.258 228.681 226.301 228.681C226.338 228.681 226.423 228.633 226.481 228.58C226.545 228.521 226.608 228.49 226.624 228.505C226.64 228.526 226.656 228.511 226.656 228.479C226.656 228.442 226.683 228.416 226.709 228.416C226.741 228.416 226.836 228.347 226.932 228.257C227.022 228.172 227.118 228.098 227.139 228.098C227.16 228.098 227.24 228.039 227.314 227.965C227.388 227.891 227.463 227.832 227.479 227.832C227.495 227.832 227.569 227.773 227.643 227.699C227.717 227.625 227.797 227.566 227.818 227.566C227.839 227.566 227.934 227.492 228.025 227.407C228.121 227.317 228.211 227.248 228.232 227.248C228.258 227.248 228.381 227.152 228.503 227.036C228.63 226.919 228.752 226.824 228.768 226.824C228.789 226.824 228.906 226.728 229.033 226.612C229.155 226.495 229.267 226.4 229.282 226.4C229.298 226.4 229.372 226.347 229.441 226.278C229.51 226.215 229.643 226.098 229.743 226.018C229.839 225.939 229.977 225.822 230.046 225.763C230.12 225.705 230.211 225.667 230.248 225.684C230.291 225.694 230.307 225.684 230.291 225.657C230.254 225.593 230.784 225.094 230.88 225.105C230.917 225.11 230.933 225.078 230.912 225.031C230.891 224.972 230.906 224.957 230.975 224.983C231.028 225.004 231.055 224.999 231.034 224.967C230.997 224.903 231.14 224.744 231.188 224.792C231.204 224.813 231.22 224.797 231.22 224.765C231.22 224.728 231.247 224.701 231.279 224.701C231.311 224.701 231.433 224.595 231.555 224.462C231.672 224.329 231.799 224.228 231.836 224.244C231.884 224.26 231.894 224.244 231.873 224.186C231.847 224.122 231.863 224.106 231.926 224.133C231.989 224.154 232 224.143 231.979 224.08C231.952 224.011 231.968 224 232.037 224.027C232.096 224.048 232.116 224.043 232.09 224.006C232.063 223.963 232.668 223.332 233.088 222.971C233.125 222.939 233.194 222.86 233.237 222.801C233.29 222.716 233.322 222.705 233.354 222.753C233.381 222.796 233.396 222.774 233.396 222.695C233.396 222.626 233.417 222.583 233.439 222.599C233.465 222.615 233.518 222.578 233.561 222.514C233.704 222.307 233.911 222.105 233.948 222.137C233.964 222.153 233.98 222.142 233.98 222.105C233.98 222.004 234.548 221.447 234.611 221.484C234.648 221.511 234.653 221.489 234.632 221.431C234.605 221.362 234.616 221.346 234.685 221.372C234.748 221.393 234.759 221.383 234.738 221.319C234.711 221.255 234.727 221.239 234.791 221.266C234.85 221.287 234.865 221.276 234.85 221.229C234.834 221.187 234.882 221.107 234.956 221.049C235.03 220.991 235.094 220.916 235.094 220.879C235.094 220.847 235.12 220.836 235.147 220.853C235.179 220.869 235.2 220.858 235.2 220.821C235.2 220.789 235.253 220.715 235.317 220.662C235.375 220.603 235.413 220.561 235.391 220.561C235.37 220.561 235.391 220.524 235.434 220.476C235.482 220.433 235.54 220.407 235.572 220.428C235.604 220.449 235.609 220.423 235.588 220.37C235.562 220.296 235.572 220.285 235.646 220.311C235.705 220.332 235.726 220.327 235.705 220.29C235.684 220.263 235.731 220.178 235.806 220.109C235.88 220.04 235.944 219.955 235.944 219.923C235.944 219.891 235.971 219.881 235.997 219.897C236.029 219.913 236.05 219.902 236.05 219.87C236.05 219.78 236.199 219.647 236.262 219.684C236.288 219.7 236.299 219.684 236.283 219.642C236.267 219.599 236.315 219.504 236.389 219.43C236.463 219.35 236.527 219.276 236.527 219.26C236.527 219.244 236.58 219.175 236.649 219.106C236.713 219.037 236.798 218.931 236.84 218.872C236.883 218.808 236.936 218.771 236.962 218.787C236.983 218.803 237.005 218.76 237.005 218.691C237.005 218.595 237.015 218.585 237.058 218.649C237.101 218.718 237.111 218.712 237.111 218.628C237.111 218.575 237.169 218.474 237.244 218.405C237.318 218.336 237.377 218.256 237.377 218.224C237.377 218.192 237.404 218.181 237.43 218.197C237.462 218.213 237.483 218.181 237.483 218.118C237.483 218.054 237.51 218.022 237.536 218.038C237.568 218.054 237.589 218.033 237.589 217.99C237.589 217.948 237.647 217.868 237.722 217.81C237.796 217.752 237.855 217.667 237.855 217.614C237.855 217.566 237.882 217.545 237.908 217.561C237.94 217.577 237.961 217.555 237.961 217.502C237.961 217.433 237.977 217.428 238.035 217.476C238.099 217.529 238.104 217.519 238.083 217.433C238.067 217.359 238.083 217.311 238.142 217.29C238.19 217.274 238.227 217.221 238.227 217.179C238.227 217.083 238.36 216.945 238.408 216.988C238.424 217.009 238.44 216.967 238.44 216.903C238.44 216.84 238.461 216.802 238.493 216.818C238.525 216.834 238.546 216.823 238.546 216.791C238.546 216.701 238.737 216.467 238.78 216.51C238.796 216.526 238.812 216.5 238.812 216.441C238.812 216.383 238.86 216.303 238.918 216.261C238.976 216.218 239.024 216.155 239.024 216.118C239.024 216.081 239.051 216.049 239.083 216.049C239.109 216.049 239.125 216.028 239.109 216.006C239.093 215.979 239.13 215.926 239.189 215.889C239.242 215.847 239.29 215.767 239.29 215.714C239.29 215.661 239.317 215.635 239.343 215.651C239.375 215.667 239.396 215.645 239.396 215.592C239.396 215.523 239.412 215.518 239.47 215.565C239.528 215.613 239.533 215.602 239.518 215.496C239.502 215.411 239.534 215.331 239.629 215.236C239.703 215.162 239.767 215.072 239.767 215.04C239.767 215.013 239.794 214.987 239.82 214.987C239.852 214.987 239.873 214.95 239.873 214.902C239.873 214.859 239.894 214.833 239.921 214.849C239.948 214.865 239.985 214.822 240.001 214.748C240.022 214.674 240.059 214.616 240.086 214.616C240.118 214.616 240.139 214.579 240.139 214.531C240.139 214.489 240.165 214.468 240.192 214.483C240.224 214.499 240.245 214.467 240.245 214.409C240.245 214.346 240.272 214.298 240.298 214.298C240.33 214.298 240.351 214.261 240.351 214.213C240.351 214.17 240.372 214.144 240.399 214.16C240.426 214.176 240.463 214.134 240.478 214.059C240.499 213.985 240.537 213.926 240.563 213.926C240.595 213.926 240.616 213.878 240.616 213.815C240.616 213.756 240.642 213.725 240.669 213.741C240.701 213.757 240.722 213.72 240.722 213.651C240.722 213.555 240.733 213.545 240.775 213.608C240.817 213.672 240.828 213.666 240.828 213.576C240.828 213.512 240.865 213.433 240.908 213.395C240.951 213.358 240.987 213.294 240.987 213.252C240.987 213.204 241.019 213.183 241.056 213.199C241.109 213.22 241.125 213.189 241.109 213.088C241.088 212.976 241.099 212.96 241.141 213.024C241.189 213.088 241.199 213.082 241.199 212.981C241.199 212.918 241.22 212.864 241.247 212.864C241.274 212.864 241.311 212.806 241.327 212.731C241.348 212.657 241.386 212.598 241.412 212.598C241.444 212.598 241.465 212.55 241.465 212.492C241.465 212.434 241.491 212.386 241.518 212.386C241.55 212.386 241.571 212.349 241.571 212.301C241.571 212.258 241.597 212.237 241.624 212.253C241.656 212.269 241.677 212.237 241.677 212.173C241.677 212.109 241.704 212.077 241.73 212.093C241.762 212.109 241.783 212.077 241.783 212.013C241.783 211.955 241.82 211.891 241.863 211.875C241.905 211.854 241.942 211.796 241.942 211.742C241.942 211.688 241.969 211.641 241.995 211.641C242.027 211.641 242.048 211.593 242.048 211.529C242.048 211.471 242.075 211.439 242.101 211.455C242.133 211.471 242.154 211.439 242.154 211.376C242.154 211.312 242.181 211.28 242.207 211.297C242.239 211.313 242.26 211.281 242.26 211.222C242.26 211.164 242.297 211.084 242.339 211.036C242.382 210.993 242.419 210.914 242.419 210.861C242.419 210.781 242.429 210.776 242.472 210.845C242.515 210.909 242.525 210.893 242.525 210.776C242.525 210.691 242.546 210.638 242.578 210.659C242.61 210.675 242.631 210.643 242.631 210.585C242.631 210.521 242.658 210.474 242.684 210.474C242.716 210.474 242.737 210.426 242.737 210.373C242.737 210.315 242.774 210.235 242.816 210.187C242.859 210.144 242.895 210.07 242.895 210.022C242.895 209.974 242.922 209.953 242.948 209.969C242.98 209.985 243.001 209.953 243.001 209.889C243.001 209.826 243.028 209.793 243.054 209.81C243.086 209.826 243.107 209.794 243.107 209.736C243.107 209.672 243.128 209.624 243.155 209.624C243.182 209.624 243.219 209.539 243.234 209.438C243.255 209.337 243.293 209.252 243.319 209.252C243.351 209.252 243.372 209.215 243.372 209.172C243.372 209.129 243.399 209.092 243.425 209.092C243.457 209.092 243.478 209.044 243.478 208.981C243.478 208.922 243.505 208.891 243.531 208.907C243.563 208.923 243.584 208.902 243.584 208.854C243.584 208.806 243.621 208.732 243.663 208.689C243.706 208.641 243.743 208.561 243.743 208.503C243.743 208.45 243.77 208.402 243.796 208.402C243.828 208.402 243.849 208.354 243.849 208.296C243.849 208.238 243.875 208.19 243.902 208.19C243.934 208.19 243.955 208.142 243.955 208.078C243.955 208.02 243.982 207.988 244.008 208.004C244.04 208.025 244.061 207.978 244.061 207.903C244.061 207.828 244.087 207.765 244.119 207.765C244.146 207.765 244.156 207.744 244.14 207.712C244.124 207.68 244.135 207.659 244.161 207.659C244.193 207.659 244.219 207.611 244.219 207.553C244.219 207.494 244.246 207.447 244.272 207.447C244.304 207.447 244.325 207.384 244.325 207.298C244.325 207.187 244.335 207.171 244.378 207.235C244.415 207.293 244.431 207.267 244.431 207.129C244.431 206.991 244.447 206.964 244.484 207.023C244.527 207.086 244.537 207.071 244.537 206.959C244.537 206.88 244.574 206.784 244.617 206.736C244.665 206.693 244.702 206.64 244.696 206.624C244.686 206.459 244.707 206.385 244.749 206.412C244.781 206.433 244.802 206.385 244.802 206.306C244.802 206.227 244.823 206.179 244.855 206.2C244.887 206.221 244.908 206.173 244.908 206.094C244.908 206.015 244.929 205.967 244.961 205.988C244.993 206.004 245.014 205.961 245.014 205.887C245.014 205.818 245.051 205.722 245.094 205.675C245.136 205.632 245.174 205.548 245.174 205.489C245.174 205.426 245.201 205.378 245.227 205.378C245.259 205.378 245.28 205.314 245.28 205.24C245.28 205.166 245.301 205.118 245.333 205.139C245.365 205.16 245.386 205.113 245.386 205.033C245.386 204.959 245.407 204.906 245.434 204.922C245.46 204.938 245.492 204.858 245.513 204.741C245.529 204.625 245.571 204.529 245.598 204.529C245.63 204.529 245.651 204.465 245.651 204.391C245.651 204.317 245.672 204.269 245.704 204.29C245.736 204.311 245.757 204.253 245.757 204.157C245.757 204.061 245.778 204.003 245.81 204.024C245.842 204.045 245.863 203.987 245.863 203.891C245.863 203.801 245.884 203.737 245.911 203.753C245.938 203.769 245.97 203.69 245.991 203.573C246.007 203.456 246.049 203.361 246.076 203.361C246.108 203.361 246.129 203.287 246.129 203.196C246.129 203.106 246.15 203.047 246.182 203.069C246.214 203.09 246.235 203.032 246.235 202.926C246.235 202.793 246.251 202.772 246.288 202.83C246.325 202.889 246.341 202.867 246.341 202.734C246.341 202.644 246.362 202.564 246.389 202.564C246.421 202.564 246.458 202.458 246.479 202.325C246.495 202.192 246.532 202.102 246.558 202.118C246.584 202.134 246.606 202.07 246.606 201.985C246.606 201.895 246.633 201.821 246.659 201.821C246.691 201.821 246.712 201.746 246.712 201.656C246.712 201.566 246.733 201.507 246.765 201.528C246.797 201.549 246.818 201.496 246.818 201.401C246.818 201.316 246.845 201.236 246.876 201.226C246.903 201.216 246.945 201.109 246.961 200.982C246.977 200.86 247.009 200.775 247.035 200.791C247.061 200.807 247.083 200.733 247.083 200.626C247.083 200.509 247.104 200.446 247.136 200.467C247.168 200.488 247.189 200.424 247.189 200.313C247.189 200.207 247.215 200.122 247.242 200.122C247.274 200.122 247.295 200.053 247.295 199.968C247.295 199.883 247.322 199.803 247.353 199.793C247.385 199.782 247.422 199.66 247.438 199.522C247.454 199.384 247.491 199.273 247.512 199.273C247.539 199.273 247.56 199.199 247.56 199.108C247.56 199.018 247.581 198.959 247.613 198.981C247.645 199.002 247.666 198.923 247.666 198.785C247.666 198.642 247.682 198.583 247.714 198.626C247.74 198.674 247.767 198.584 247.788 198.387C247.804 198.217 247.847 198.074 247.878 198.063C247.905 198.053 247.931 197.946 247.931 197.835C247.931 197.707 247.952 197.633 247.984 197.654C248.016 197.675 248.037 197.596 248.037 197.458C248.037 197.293 248.053 197.251 248.09 197.309C248.127 197.367 248.143 197.314 248.143 197.123C248.143 196.958 248.159 196.884 248.191 196.927C248.218 196.975 248.249 196.863 248.271 196.625C248.292 196.418 248.33 196.248 248.361 196.248C248.388 196.248 248.409 196.152 248.409 196.036C248.409 195.92 248.435 195.824 248.462 195.824C248.494 195.824 248.515 195.728 248.515 195.606C248.515 195.479 248.536 195.404 248.568 195.426C248.6 195.447 248.621 195.362 248.621 195.214C248.621 195.081 248.642 194.981 248.669 194.996C248.695 195.012 248.732 194.821 248.754 194.566C248.78 194.269 248.807 194.136 248.839 194.184C248.871 194.232 248.887 194.147 248.887 193.94C248.887 193.717 248.903 193.643 248.94 193.701C248.977 193.759 248.993 193.69 248.993 193.473C248.993 193.282 249.014 193.176 249.046 193.197C249.078 193.218 249.099 193.117 249.099 192.932C249.099 192.767 249.12 192.645 249.147 192.661C249.19 192.688 249.259 192.162 249.259 191.775C249.259 191.653 249.28 191.584 249.312 191.605C249.344 191.626 249.365 191.515 249.365 191.302C249.365 191.069 249.381 190.989 249.418 191.047C249.455 191.1 249.471 190.999 249.471 190.713C249.471 190.448 249.492 190.31 249.524 190.331C249.556 190.352 249.577 190.225 249.577 189.991C249.577 189.789 249.598 189.614 249.625 189.604C249.651 189.594 249.694 189.222 249.715 188.781C249.736 188.335 249.773 187.985 249.794 188.001C249.821 188.017 249.842 187.757 249.842 187.428C249.842 187.019 249.858 186.855 249.895 186.908C249.932 186.961 249.948 186.717 249.954 186.165C249.954 185.656 249.975 185.385 250.002 185.448C250.029 185.507 250.05 184.159 250.05 182.29C250.05 180.422 250.029 179.074 250.002 179.133C249.975 179.196 249.954 178.942 249.954 178.454C249.948 177.945 249.927 177.679 249.895 177.7C249.863 177.721 249.842 177.525 249.842 177.142C249.842 176.818 249.821 176.564 249.794 176.58C249.773 176.596 249.736 176.246 249.715 175.8C249.694 175.354 249.656 174.983 249.625 174.977C249.598 174.966 249.577 174.775 249.577 174.552C249.577 174.265 249.561 174.17 249.524 174.223C249.487 174.276 249.471 174.17 249.471 173.878C249.471 173.586 249.455 173.48 249.418 173.533C249.381 173.592 249.365 173.512 249.365 173.278C249.365 173.066 249.344 172.954 249.312 172.975C249.28 172.996 249.259 172.927 249.259 172.805C249.259 172.418 249.19 171.892 249.147 171.919C249.12 171.935 249.099 171.797 249.099 171.611C249.099 171.377 249.083 171.298 249.046 171.356C249.009 171.415 248.993 171.34 248.993 171.117C248.993 170.894 248.977 170.82 248.94 170.878C248.903 170.937 248.887 170.862 248.887 170.639C248.887 170.432 248.871 170.347 248.839 170.395C248.807 170.443 248.78 170.31 248.754 170.013C248.733 169.758 248.696 169.567 248.669 169.583C248.642 169.599 248.621 169.498 248.621 169.365C248.621 169.216 248.6 169.131 248.568 169.153C248.536 169.174 248.515 169.1 248.515 168.973C248.515 168.851 248.494 168.755 248.462 168.755C248.435 168.755 248.409 168.659 248.409 168.543C248.409 168.427 248.388 168.331 248.361 168.331C248.329 168.331 248.292 168.161 248.271 167.954C248.25 167.715 248.218 167.604 248.191 167.652C248.159 167.695 248.143 167.62 248.143 167.456C248.143 167.265 248.127 167.212 248.09 167.27C248.053 167.328 248.037 167.275 248.037 167.084C248.037 166.893 248.021 166.84 247.984 166.898C247.947 166.956 247.931 166.919 247.931 166.755C247.931 166.633 247.904 166.527 247.878 166.516C247.846 166.505 247.804 166.362 247.788 166.192C247.767 165.996 247.74 165.906 247.714 165.953C247.682 165.995 247.666 165.937 247.666 165.794C247.666 165.656 247.645 165.576 247.613 165.598C247.581 165.62 247.56 165.561 247.56 165.471C247.56 165.381 247.539 165.306 247.507 165.306C247.481 165.306 247.454 165.226 247.454 165.125C247.454 165.024 247.427 164.923 247.401 164.907C247.369 164.886 247.358 164.854 247.374 164.827C247.39 164.8 247.379 164.769 247.348 164.748C247.321 164.732 247.295 164.658 247.295 164.583C247.295 164.514 247.274 164.456 247.242 164.456C247.215 164.456 247.189 164.371 247.189 164.265C247.189 164.153 247.168 164.09 247.136 164.111C247.104 164.132 247.083 164.069 247.083 163.952C247.083 163.846 247.062 163.771 247.035 163.787C247.008 163.803 246.977 163.718 246.961 163.596C246.945 163.469 246.902 163.362 246.876 163.352C246.844 163.342 246.818 163.262 246.818 163.177C246.818 163.081 246.797 163.028 246.765 163.049C246.733 163.07 246.712 163.012 246.712 162.922C246.712 162.832 246.691 162.757 246.659 162.757C246.633 162.757 246.606 162.683 246.606 162.593C246.606 162.503 246.585 162.444 246.553 162.465C246.521 162.486 246.5 162.433 246.5 162.348C246.5 162.263 246.463 162.146 246.42 162.088C246.378 162.035 246.34 161.913 246.34 161.828C246.34 161.706 246.324 161.685 246.287 161.748C246.25 161.806 246.234 161.785 246.234 161.652C246.234 161.546 246.213 161.487 246.181 161.509C246.149 161.53 246.128 161.477 246.128 161.382C246.128 161.297 246.101 161.217 246.07 161.207C246.044 161.197 246.001 161.085 245.985 160.958C245.964 160.809 245.937 160.756 245.911 160.804C245.879 160.846 245.863 160.814 245.863 160.698C245.863 160.592 245.842 160.533 245.81 160.555C245.778 160.576 245.757 160.518 245.757 160.422C245.757 160.326 245.736 160.268 245.704 160.289C245.672 160.31 245.651 160.262 245.651 160.188C245.651 160.114 245.63 160.05 245.598 160.05C245.572 160.05 245.529 159.954 245.513 159.838C245.492 159.721 245.46 159.641 245.434 159.657C245.407 159.673 245.386 159.625 245.386 159.551C245.386 159.477 245.365 159.413 245.333 159.413C245.307 159.413 245.28 159.365 245.28 159.307C245.28 159.248 245.259 159.201 245.227 159.201C245.201 159.201 245.174 159.153 245.174 159.09C245.174 159.031 245.137 158.947 245.094 158.904C245.051 158.856 245.014 158.766 245.014 158.692C245.014 158.623 244.993 158.565 244.961 158.565C244.934 158.565 244.908 158.517 244.908 158.453C244.908 158.395 244.887 158.363 244.855 158.379C244.823 158.4 244.802 158.342 244.802 158.236C244.802 158.104 244.786 158.082 244.749 158.14C244.707 158.204 244.696 158.193 244.696 158.087C244.696 158.013 244.659 157.907 244.617 157.853C244.574 157.795 244.537 157.689 244.537 157.614C244.537 157.502 244.526 157.492 244.484 157.555C244.447 157.614 244.431 157.587 244.431 157.449C244.431 157.311 244.415 157.284 244.378 157.343C244.335 157.407 244.325 157.391 244.325 157.274C244.325 157.194 244.304 157.131 244.272 157.131C244.245 157.131 244.219 157.083 244.219 157.025C244.219 156.967 244.193 156.919 244.161 156.919C244.134 156.919 244.124 156.892 244.14 156.866C244.156 156.834 244.145 156.813 244.119 156.813C244.087 156.813 244.061 156.75 244.061 156.675C244.061 156.601 244.04 156.553 244.008 156.574C243.976 156.595 243.955 156.547 243.955 156.468C243.955 156.389 243.934 156.341 243.902 156.362C243.875 156.378 243.849 156.346 243.849 156.288C243.849 156.224 243.828 156.176 243.801 156.176C243.774 156.176 243.737 156.091 243.721 155.99C243.7 155.884 243.662 155.815 243.631 155.831C243.605 155.852 243.583 155.799 243.583 155.714C243.583 155.597 243.573 155.581 243.53 155.645C243.487 155.709 243.477 155.704 243.477 155.602C243.477 155.539 243.456 155.486 243.424 155.486C243.397 155.486 243.371 155.449 243.371 155.406C243.371 155.363 243.35 155.327 243.318 155.327C243.292 155.327 243.254 155.242 243.233 155.141C243.217 155.04 243.18 154.955 243.154 154.955C243.128 154.955 243.106 154.907 243.106 154.843C243.106 154.785 243.085 154.753 243.053 154.769C243.021 154.79 243 154.737 243 154.652C243 154.535 242.989 154.519 242.947 154.583C242.904 154.647 242.894 154.631 242.894 154.514C242.894 154.435 242.873 154.371 242.841 154.371C242.814 154.371 242.778 154.313 242.756 154.238C242.74 154.164 242.703 154.105 242.676 154.105C242.649 154.105 242.628 154.057 242.628 153.994C242.628 153.935 242.607 153.904 242.575 153.92C242.543 153.936 242.522 153.899 242.522 153.83C242.522 153.729 242.474 153.761 242.23 154.032C242.065 154.218 241.832 154.414 241.689 154.483C241.455 154.595 241.365 154.61 240.691 154.605C239.901 154.605 239.731 154.578 238.176 154.181C236.818 153.831 236.191 153.73 235.411 153.73C234.78 153.73 234.647 153.746 234.302 153.863C233.692 154.07 233.31 154.436 233.071 155.046C232.965 155.322 232.949 155.449 232.949 156.203C232.944 156.829 232.97 157.18 233.045 157.53C233.167 158.14 233.464 159.191 233.57 159.393C233.708 159.664 234.09 159.993 234.403 160.11C234.774 160.253 235.592 160.264 236.101 160.136C236.876 159.94 237.826 159.472 238.256 159.085C238.58 158.788 238.802 158.708 239.206 158.756C240.368 158.899 241.674 159.621 242.82 160.767C243.451 161.398 243.775 161.802 244.179 162.46C244.572 163.113 244.656 163.383 244.635 163.951C244.619 164.37 244.598 164.471 244.444 164.768C244.03 165.564 243.409 166.153 241.573 167.48C238.527 169.682 237.29 170.866 236.309 172.511C235.821 173.334 235.571 173.673 235.189 174.039C234.802 174.411 234.557 174.57 234.112 174.756C233.836 174.868 233.709 174.883 233.157 174.883C232.329 174.883 231.963 174.772 230.849 174.193C230.446 173.981 229.416 173.264 228.864 172.813C228.604 172.601 227.171 171.391 226.922 171.178C226.848 171.114 226.673 170.966 226.524 170.849C225.441 169.995 224.269 168.764 223.308 167.479C222.353 166.195 222.209 165.988 220.978 164.136C220.155 162.905 219.662 162.183 219.041 161.324C218.983 161.245 218.802 160.979 218.632 160.73C217.953 159.706 217.544 159.313 217.168 159.308C216.812 159.308 216.292 159.706 216.197 160.067C216.091 160.47 216.308 161.431 216.786 162.62C217.264 163.819 217.582 164.504 218.739 166.791C219.275 167.858 219.737 168.749 219.758 168.781C219.779 168.808 219.96 169.142 220.156 169.524C220.353 169.901 220.607 170.379 220.714 170.585C221.319 171.715 222.03 173.111 222.226 173.557C222.741 174.725 222.974 174.985 224.014 175.568C224.879 176.051 226.572 176.497 228.275 176.688C229.501 176.826 230.117 176.996 230.886 177.415C232.069 178.062 232.653 178.948 232.664 180.111C232.664 180.583 232.574 180.902 232.293 181.432C232.112 181.777 231.534 182.637 231.343 182.844C231.29 182.902 231.131 183.093 230.988 183.268C230.845 183.443 230.224 184.096 229.608 184.717C228.679 185.656 228.133 186.182 226.625 187.567C226.593 187.593 226.37 187.801 226.126 188.018C225.882 188.236 225.659 188.442 225.627 188.469C225.595 188.501 225.144 188.91 224.629 189.387C223.26 190.645 222.92 191.048 222.75 191.627C222.649 191.972 222.633 193.628 222.729 194.349C222.761 194.588 222.809 194.975 222.835 195.209C222.888 195.655 223.074 196.96 223.154 197.465C223.494 199.582 223.631 200.638 223.631 201.169C223.631 201.811 223.551 202.023 223.058 202.676C222.649 203.212 222.315 203.552 221.243 204.539C220.06 205.622 218.765 206.917 218.547 207.24C218.213 207.728 218.117 207.983 218.059 208.535C217.985 209.193 217.794 209.946 217.581 210.44C217.555 210.499 217.459 210.727 217.369 210.944C217.199 211.337 216.632 212.494 216.43 212.854C215.416 214.637 213.363 217.662 212.089 219.249C210.789 220.862 209.945 221.504 208.608 221.892C207.472 222.221 207.005 222.269 204.951 222.274H203.173L202.86 222.115C202.212 221.786 201.799 221.064 201.502 219.748C201.343 219.031 201.306 218.862 201.242 218.533C201.183 218.262 201.014 217.466 200.918 217.047C200.891 216.946 200.823 216.66 200.759 216.41C200.642 215.948 200.425 215.052 200.228 214.208C199.766 212.25 199.405 211.013 198.954 209.889C198.514 208.774 198.078 208.037 197.442 207.31C196.667 206.429 196.46 205.989 196.184 204.657C196.099 204.232 196.099 202.009 196.184 201.314C196.253 200.789 196.269 200.661 196.433 199.616C196.523 199.043 196.518 199.075 196.836 197.467C197.122 196.013 197.197 195.477 197.202 194.808C197.202 194.001 197.037 192.919 196.772 191.948C196.576 191.258 196.05 189.724 195.843 189.252C195.795 189.146 195.737 189.008 195.715 188.949C195.673 188.843 194.919 187.033 194.776 186.694C194.458 185.946 194.039 185.192 193.736 184.837C193.147 184.136 192.266 183.579 191.385 183.356C190.085 183.022 188.689 183.069 186.429 183.515C186.296 183.542 185.951 183.584 185.659 183.616C185.181 183.659 184.725 183.712 183.138 183.887C179.88 184.248 176.961 184.386 175.38 184.258C173.804 184.131 173.533 184.024 172.153 183.016C170.534 181.827 169.882 180.723 169.479 178.494C169.309 177.56 169.261 176.78 169.261 174.992C169.261 173.023 169.335 171.946 169.558 170.64C169.765 169.436 170.189 167.859 170.577 166.819C170.625 166.703 170.72 166.426 170.8 166.209C170.88 165.991 170.959 165.763 170.986 165.705C171.034 165.594 171.718 163.784 171.888 163.317C172.063 162.85 172.35 162.006 172.546 161.401C173.315 159.008 174.435 157.67 176.929 156.169C177.147 156.036 177.9 155.612 178.601 155.224C179.302 154.837 179.975 154.449 180.098 154.364C180.22 154.285 180.332 154.215 180.353 154.215C180.411 154.215 180.963 153.849 181.998 153.127C183.155 152.32 183.712 152.013 184.476 151.758C185.888 151.286 187.103 151.233 189.109 151.556C189.48 151.614 191.03 151.912 191.338 151.986C191.556 152.034 191.927 152.102 192.511 152.198C192.686 152.23 193.355 152.288 193.997 152.331C194.639 152.374 195.302 152.443 195.467 152.485C195.976 152.618 196.502 152.931 196.916 153.34C197.394 153.807 197.6 154.13 198.258 155.425C199.155 157.176 199.394 157.388 200.758 157.638C202.021 157.872 202.43 157.84 203.576 157.442L204.393 157.161L205.11 157.166C205.54 157.171 206.14 157.219 206.623 157.288C208.682 157.596 209.419 157.665 210.56 157.665C213.176 157.665 215.177 156.954 216.923 155.399C217.905 154.523 218.934 153.218 219.322 152.358C219.614 151.711 219.678 151.429 219.672 150.739C219.666 150.182 219.651 150.055 219.523 149.709C219.157 148.738 218.69 148.112 216.907 146.254C215.538 144.827 215.283 144.556 214.954 144.158C214.455 143.558 214.37 143.468 213.919 143.012C213.357 142.444 213.112 142.306 212.646 142.301C212.19 142.301 212.052 142.375 211.255 143.055C210.125 144.021 209.658 144.286 208.634 144.552C208.31 144.637 207.01 144.626 206.543 144.531C205.535 144.329 204.829 144.096 203.624 143.565C202.074 142.875 201.677 142.716 200.653 142.382C199.305 141.942 198.865 141.851 198.031 141.851C196.662 141.851 196.115 142.228 194.693 144.133C193.058 146.33 192.225 147.121 190.824 147.826C189.073 148.707 186.992 149.2 184.488 149.333C183.002 149.412 181.182 149.306 180.274 149.094C180.2 149.073 180.035 149.036 179.903 149.004C179.478 148.903 178.873 148.691 178.566 148.526C177.345 147.879 177.202 146.51 178.152 144.557C178.476 143.889 178.943 143.236 179.559 142.604C180.519 141.606 181.427 141.107 182.271 141.107C182.531 141.107 183.12 141.006 183.444 140.905C183.863 140.772 184.299 140.486 184.739 140.046C185.126 139.664 185.232 139.515 185.44 139.091C185.827 138.29 185.907 137.934 185.939 136.915C185.96 136.161 185.944 135.954 185.843 135.429C185.578 134.049 185.684 132.781 186.225 130.892C186.252 130.802 186.337 130.515 186.411 130.255C186.698 129.257 187.223 127.745 187.785 126.275C187.944 125.866 188.088 125.49 188.109 125.437C188.141 125.357 188.099 125.347 187.653 125.347C187.406 125.357 187.199 125.378 187.215 125.404Z" fill="#065798"/>
<path d="M266.533 223.081V255.903H233.71H200.887V261.634V267.365H239.441H277.995V228.811V190.257H272.264H266.533V223.081Z" fill="#666B72"/>
<path d="M1039.77 185.639C1039.77 190.589 1039.18 194.636 1038 197.778C1036.82 200.922 1035.11 203.258 1032.88 204.791C1030.64 206.324 1027.91 207.089 1024.69 207.089C1021.78 207.089 1019.34 206.482 1017.38 205.262C1015.41 204.045 1013.94 202.159 1012.96 199.606C1011.98 197.053 1011.48 193.851 1011.48 190.001V156.767H1001.59V193.538C1001.59 198.41 1002.39 202.494 1004 205.795C1005.61 209.095 1007.95 211.59 1011.01 213.278C1014.08 214.966 1017.69 215.811 1021.86 215.811C1026.57 215.811 1030.73 214.673 1034.35 212.394C1036.51 211.032 1038.31 209.296 1039.77 207.203V214.868H1049.67V156.766H1039.77V185.639Z" fill="#F77F00"/>
<path d="M1081.61 135.551L1071.47 141.208V156.765H1059.45V164.543H1071.47V200.017C1071.47 203.711 1072.1 206.735 1073.36 209.092C1074.61 211.448 1076.36 213.157 1078.6 214.218C1080.84 215.279 1083.33 215.809 1086.08 215.809C1087.5 215.809 1088.97 215.692 1090.5 215.455C1092.04 215.22 1093.55 214.827 1095.04 214.277V206.499C1093.78 206.813 1092.6 207.069 1091.51 207.265C1090.4 207.462 1089.46 207.56 1088.68 207.56C1086.01 207.56 1084.16 206.676 1083.14 204.908C1082.12 203.14 1081.61 200.647 1081.61 197.425V164.544H1095.04V156.766H1081.61V135.551Z" fill="#F77F00"/>
<path d="M1135.11 178.214L1155.97 156.764H1143.12L1117.55 183.128V132.722H1107.53V214.866H1117.55V195.925L1127.8 184.931L1147.13 214.866H1159.04L1135.11 178.214Z" fill="#F77F00"/>
</svg>
